<svg width="26" height="26" viewBox="0 0 26 26" fill="none" xmlns="http://www.w3.org/2000/svg">
<g id="Icon/Fill/person">
<path id="Mask" fill-rule="evenodd" clip-rule="evenodd" d="M17.3333 7.58333C17.3333 9.97317 15.3898 11.9167 13 11.9167C10.6101 11.9167 8.66663 9.97317 8.66663 7.58333C8.66663 5.1935 10.6101 3.25 13 3.25C15.3898 3.25 17.3333 5.1935 17.3333 7.58333ZM20.5833 21.6667C20.5833 22.2647 20.099 22.75 19.5 22.75H6.49996C5.90088 22.75 5.41663 22.2647 5.41663 21.6667C5.41663 17.485 8.81938 14.0833 13 14.0833C17.1805 14.0833 20.5833 17.485 20.5833 21.6667Z" fill="#231F20"/>
<mask id="mask0_224_304" style="mask-type:luminance" maskUnits="userSpaceOnUse" x="5" y="3" width="16" height="20">
<path id="Mask_2" fill-rule="evenodd" clip-rule="evenodd" d="M17.3333 7.58333C17.3333 9.97317 15.3898 11.9167 13 11.9167C10.6101 11.9167 8.66663 9.97317 8.66663 7.58333C8.66663 5.1935 10.6101 3.25 13 3.25C15.3898 3.25 17.3333 5.1935 17.3333 7.58333ZM20.5833 21.6667C20.5833 22.2647 20.099 22.75 19.5 22.75H6.49996C5.90088 22.75 5.41663 22.2647 5.41663 21.6667C5.41663 17.485 8.81938 14.0833 13 14.0833C17.1805 14.0833 20.5833 17.485 20.5833 21.6667Z" fill="white"/>
</mask>
<g mask="url(#mask0_224_304)">
<g id="&#240;&#159;&#142;&#168; Color">
<rect id="Base" width="26" height="26" fill="#0D1C2E"/>
</g>
</g>
</g>
</svg>
